<?xml version="1.0" standalone="no"?>
<!DOCTYPE svg PUBLIC "-//W3C//DTD SVG 20010904//EN"
 "http://www.w3.org/TR/2001/REC-SVG-20010904/DTD/svg10.dtd">
<svg version="1.0" xmlns="http://www.w3.org/2000/svg"
 width="711.000000pt" height="711.000000pt" viewBox="0 0 711.000000 711.000000"
 preserveAspectRatio="xMidYMid meet">
<metadata>
Created by potrace 1.14, written by Peter Selinger 2001-2017
</metadata>
<g transform="translate(0.000000,711.000000) scale(0.100000,-0.100000)"
fill="#000000" stroke="none">
<path d="M3637 6514 c-3 -3 -39 -8 -79 -10 -40 -3 -129 -14 -198 -25 -69 -11
-132 -22 -140 -23 -9 -1 -21 -5 -28 -10 -6 -4 -12 -5 -12 -2 0 2 -39 -7 -87
-20 -49 -14 -92 -26 -98 -28 -24 -6 -62 -18 -80 -25 -11 -5 -47 -19 -80 -31
-85 -32 -345 -161 -345 -172 0 -4 -5 -8 -11 -8 -18 0 -210 -136 -269 -190 -85
-78 -144 -135 -189 -186 -53 -57 -172 -214 -200 -264 -67 -116 -95 -169 -125
-232 -53 -113 -120 -315 -140 -418 -2 -14 -9 -47 -15 -75 -24 -118 -30 -194
-36 -425 -2 -107 -7 -283 -10 -390 -8 -289 -14 -539 -20 -775 -2 -115 -7 -282
-10 -370 -2 -88 -7 -263 -10 -390 -3 -126 -8 -291 -10 -365 -2 -74 -7 -238
-11 -365 -9 -327 -10 -632 -2 -690 32 -211 104 -349 239 -457 19 -15 39 -28
46 -28 6 0 13 -4 15 -8 2 -5 37 -22 78 -39 67 -28 102 -37 220 -59 82 -14 278
-9 384 12 47 9 149 46 193 70 213 117 328 316 347 599 3 44 8 215 11 380 8
495 15 914 20 1205 9 487 16 908 20 1205 7 457 12 598 23 625 5 14 10 29 10
33 1 39 85 171 151 237 49 49 172 140 188 140 6 0 21 8 34 18 40 31 198 90
305 115 129 30 293 33 415 7 92 -20 150 -39 161 -55 4 -5 8 -7 8 -3 0 11 107
-48 155 -85 208 -162 318 -415 317 -728 0 -135 -26 -296 -64 -398 -11 -31 -21
-63 -23 -71 -1 -8 -7 -26 -13 -40 -86 -204 -151 -292 -255 -342 -85 -41 -141
-50 -342 -53 -104 -2 -213 -8 -241 -14 -63 -12 -162 -55 -181 -79 -56 -69 -94
-158 -118 -274 -22 -104 -24 -116 -30 -223 -4 -55 -8 -116 -9 -135 -5 -65 21
-198 51 -262 52 -111 140 -180 271 -213 57 -14 78 -18 162 -30 24 -4 48 -9 52
-11 5 -3 8 0 8 6 0 7 7 8 18 3 18 -9 25 -9 134 0 158 14 464 108 658 204 81
39 201 109 235 135 6 5 33 25 60 45 91 67 214 185 285 273 25 30 47 57 51 60
16 13 119 169 172 260 29 49 74 144 122 255 33 76 90 252 110 340 8 35 28 129
31 150 32 187 41 311 38 500 -2 105 -5 201 -7 215 -2 14 -8 54 -12 90 -5 36
-9 67 -10 70 -1 3 -5 25 -9 50 -9 54 -44 199 -53 220 -3 8 -5 18 -5 22 3 14
-70 201 -115 297 -49 104 -135 252 -158 271 -8 7 -15 17 -15 22 0 28 -197 248
-340 380 -54 49 -235 188 -245 188 -2 0 -36 20 -74 45 -76 49 -225 126 -331
170 -54 23 -259 96 -267 95 -2 0 -4 0 -5 1 -2 0 -10 2 -18 4 -8 2 -44 10 -80
19 -168 39 -445 68 -515 53 -11 -2 -27 -1 -36 4 -9 5 -19 6 -22 3z"/>
</g>
</svg>
