<svg id="b9b3c72a-3b99-4e28-aee4-7b73d40b397f" xmlns="http://www.w3.org/2000/svg" xmlns:xlink="http://www.w3.org/1999/xlink" viewBox="0 0 829 364.83"><defs><style>.cls-1{fill:#f2f2f2;}.cls-2{fill:#fff;}.cls-3{fill:#17c600;}.cls-4{fill:#ccc;}.cls-5{fill:#b3b3b3;}.cls-6{fill:#ffb8b8;}.cls-7{opacity:0.2;isolation:isolate;}.cls-8{fill:#3f3d56;}.cls-9{fill:#2f2e41;}</style></defs><path class="cls-1" d="M246.63,300.39c-2.85,22.33-13.33,42.76-24.51,62.44-.37.67-.75,1.33-1.14,2H104.78c-2.35-.61-4.67-1.28-7-2a127.09,127.09,0,0,1-36.69-18.05c-42.75-30.8-59.2-89-51.77-141.15,4.62-32.4,18.84-65.48,46.53-82.93,14.62-9.23,33.4-12.23,50.23-8.8l1.33.27c14.48,3.26,27.38,11.36,34.72,24.41,13.2,23.45,5.34,52.5-1.15,78.6s-10,57.34,8.8,76.59c-6.2-18.25-.08-40,14.73-52.36,11.19-9.31,26.77-12.8,41-9.91,1.36.29,2.7.62,4,1a44.16,44.16,0,0,1,9.17,3.84C240.85,246.73,249.82,275.22,246.63,300.39Z" transform="translate(0 0)"/><path class="cls-2" d="M177.73,362.83c3.22.75,6.45,1.41,9.7,2H169.86c-2.3-.62-4.59-1.28-6.86-2q-7.49-2.34-14.74-5.37c-19.4-8.14-37.27-20.36-50.79-36.62a103.55,103.55,0,0,1-16-26.17,118.77,118.77,0,0,1-8.2-33.49c-2.45-23.6,0-47.85,4.72-71a296.46,296.46,0,0,1,23.16-69.47q1.91-4,3.94-7.9a1.54,1.54,0,0,1,1-.88,1.79,1.79,0,0,1,1.33.27,2.11,2.11,0,0,1,.83,2.78,293,293,0,0,0-24.58,67c-5.32,22.67-8.34,46.39-7.31,69.7,1,21.78,6.67,43.2,19.58,61C107.74,328.88,124,341.7,142,350.43A169.48,169.48,0,0,0,177.73,362.83Z" transform="translate(0 0)"/><path class="cls-2" d="M216.29,364.83h-5.18c-.58-.66-1.14-1.33-1.69-2a110.46,110.46,0,0,1-23.24-49.66,107.71,107.71,0,0,1,9.29-67.05,109.59,109.59,0,0,1,10-16.62c1.36.29,2.7.62,4,1a104.21,104.21,0,0,0,5,132.31C215.08,363.5,215.68,364.17,216.29,364.83Z" transform="translate(0 0)"/><path class="cls-1" d="M682.93,347.82c.75,5.9,3.52,11.29,6.47,16.48l.3.53h30.67c.62-.16,1.23-.34,1.84-.53a33.45,33.45,0,0,0,9.68-4.76c11.28-8.13,15.63-23.49,13.66-37.25-1.21-8.56-5-17.29-12.28-21.89A18.37,18.37,0,0,0,720,298.08l-.35.07a13.67,13.67,0,0,0-9.17,6.44c-3.48,6.19-1.41,13.86.31,20.74s2.63,15.14-2.33,20.22a12.64,12.64,0,0,0-14.7-16.44c-.36.08-.71.17-1.06.27a11.94,11.94,0,0,0-2.42,1C684.45,333.66,682.09,341.18,682.93,347.82Z" transform="translate(0 0)"/><path class="cls-2" d="M701.11,364.3c-.85.2-1.7.37-2.56.53h4.64c.61-.16,1.21-.34,1.81-.53,1.32-.41,2.61-.88,3.89-1.42a34.85,34.85,0,0,0,13.41-9.66,27.2,27.2,0,0,0,4.22-6.91,31.28,31.28,0,0,0,2.17-8.84,63.1,63.1,0,0,0-1.25-18.74,78.15,78.15,0,0,0-6.11-18.34c-.34-.7-.68-1.39-1-2.08a.39.39,0,0,0-.27-.23.44.44,0,0,0-.35.07.54.54,0,0,0-.22.73,77.41,77.41,0,0,1,6.48,17.67,67.89,67.89,0,0,1,1.93,18.4,29.32,29.32,0,0,1-5.16,16.1,32.55,32.55,0,0,1-12.16,10A44.26,44.26,0,0,1,701.11,364.3Z" transform="translate(0 0)"/><path class="cls-2" d="M690.94,364.83h1.36l.45-.53a29.16,29.16,0,0,0,6.13-13.1,28.39,28.39,0,0,0-2.45-17.7,28.77,28.77,0,0,0-2.65-4.39c-.36.08-.71.17-1.06.27a27.5,27.5,0,0,1-1.31,34.92C691.26,364.48,691.1,364.65,690.94,364.83Z" transform="translate(0 0)"/><path class="cls-3" d="M406.51,212.51h-96l-1-29.51a8.86,8.86,0,0,1,8.55-9.16,8,8,0,0,1,1.38.06l55.86,6.84h0A31.29,31.29,0,0,1,406.51,212Z" transform="translate(0 0)"/><path class="cls-4" d="M363.73,107.83H296.79A6.78,6.78,0,0,0,290,114.6h0v66.94a6.78,6.78,0,0,0,6.78,6.78h66.94a6.78,6.78,0,0,0,6.78-6.78h0V114.61a6.78,6.78,0,0,0-6.78-6.78Z" transform="translate(0 0)"/><path class="cls-5" d="M370.51,114.61v8.9H290v-8.9a6.78,6.78,0,0,1,6.78-6.78h66.94a6.78,6.78,0,0,1,6.78,6.77Z" transform="translate(0 0)"/><path class="cls-6" d="M531.26,126.29a10.74,10.74,0,0,0-13.44-7.08,11.1,11.1,0,0,0-1.75.72L424,86.88l-4.06,23,91.81,25.25a10.8,10.8,0,0,0,19.54-8.85Z" transform="translate(0 0)"/><path class="cls-7" d="M531.26,126.29a10.74,10.74,0,0,0-13.44-7.08,11.1,11.1,0,0,0-1.75.72L424,86.88l-4.06,23,91.81,25.25a10.8,10.8,0,0,0,19.54-8.85Z" transform="translate(0 0)"/><path class="cls-3" d="M440.32,91.08l-8.7,22.72a4.82,4.82,0,0,1-6.22,2.77,4.12,4.12,0,0,1-.64-.3l-21.14-11.89a13.38,13.38,0,0,1,9.64-25l23.6,5.23a4.82,4.82,0,0,1,3.66,5.75A5.31,5.31,0,0,1,440.32,91.08Z" transform="translate(0 0)"/><path class="cls-3" d="M538.51,147.33l-33,15,4.33,16.31a253.61,253.61,0,0,1,6.54,96.65h0l24.13,5,20-51-7-58Z" transform="translate(0 0)"/><path class="cls-8" d="M603.26,222.83c-21.68,0-39.35,15.76-40.21,35.5h80.42C642.61,238.59,624.94,222.83,603.26,222.83Z" transform="translate(0 0)"/><path class="cls-8" d="M586.38,226.23c-1.13-89.1-51.87-80.9-51.87-80.9s1,27.73,1.41,28.59c32.33,61.18-21,132.91-89,119.71-1.29-.25-2.52-.5-3.7-.75a34.59,34.59,0,0,1-27.16-38.77c6.69-53.73-26.59-52.78-26.59-52.78H340.84l-25.27-22.75a7.35,7.35,0,0,0-11.81,2.92l-3.25,8.83s-48,5-44,52h14.84a29.73,29.73,0,0,0,.16,4l110.75-.9c6.49-.05,12.22,5.21,12.25,11.7a11.75,11.75,0,0,1-11.7,11.8h-.44l-17.86-.59c-5.5,24.5,8,41,22.87,51.37A83.2,83.2,0,0,0,435,334.33h48.51c63,0,74-53,74-53C590.51,267.33,586.38,226.23,586.38,226.23Z" transform="translate(0 0)"/><circle class="cls-8" cx="600.26" cy="307.08" r="56.25"/><circle class="cls-2" cx="600.26" cy="307.08" r="13.79"/><circle class="cls-8" cx="316.26" cy="298.58" r="64.75"/><circle class="cls-2" cx="316.26" cy="298.58" r="15.87"/><path class="cls-8" d="M505.6,166.76l-11.87-32.25A13.64,13.64,0,0,1,501.82,117h0l34-12.53a24,24,0,0,1,30.81,14.23h0a23.91,23.91,0,0,1,1.48,8.29,24.2,24.2,0,0,1-9,18.73,23.85,23.85,0,0,1-6.72,3.79Z" transform="translate(0 0)"/><path class="cls-3" d="M567.65,127a23.57,23.57,0,0,1-8.8,18.34,30,30,0,0,1-21.35-36.65,29.55,29.55,0,0,1,1.65-4.65,23.51,23.51,0,0,1,28,18A23.25,23.25,0,0,1,567.65,127Z" transform="translate(0 0)"/><ellipse class="cls-3" cx="265.01" cy="231.83" rx="14" ry="17"/><polygon class="cls-6" points="450.07 292 462.33 292 468.16 260.21 450.07 260.21 450.07 292"/><path class="cls-9" d="M446.94,288h24.15a15.38,15.38,0,0,1,15.38,15.39h0v.5H446.94Z" transform="translate(0 0)"/><path class="cls-9" d="M464.3,279a3.17,3.17,0,0,1-.43,0l-17-1.23a4.5,4.5,0,0,1-4.06-4.9,4.42,4.42,0,0,1,.26-1.13l22.7-51a3.48,3.48,0,0,0-.19-2.79,3.45,3.45,0,0,0-2.22-1.76c-10.67-2.79-38.07-10.23-61.78-18.92-10.16-3.73-16.56-9.11-19-16-3.24-9.09,1.55-17.38,1.76-17.73l.16-.27,22.32,2L431,167.27l53,28.43a20.08,20.08,0,0,1,8.82,25.78l-24.44,54.81A4.49,4.49,0,0,1,464.3,279Z" transform="translate(0 0)"/><circle class="cls-6" cx="410.71" cy="39.72" r="24.56"/><polygon class="cls-6" points="443.07 295 455.33 295 461.16 263.21 443.07 263.21 443.07 295"/><path class="cls-9" d="M439.94,291h24.15a15.38,15.38,0,0,1,15.38,15.39h0v.5H439.94Z" transform="translate(0 0)"/><path class="cls-9" d="M457.3,282a3.17,3.17,0,0,1-.43,0l-17-1.23a4.5,4.5,0,0,1-4.06-4.9,4.42,4.42,0,0,1,.26-1.13l22.7-51a3.48,3.48,0,0,0-.19-2.79,3.45,3.45,0,0,0-2.22-1.76c-10.67-2.79-38.07-10.23-61.78-18.92-10.16-3.73-16.56-9.11-19-16-3.24-9.09,1.55-17.38,1.76-17.73l.16-.27,22.32,2L424,170.27l53,28.43a20.08,20.08,0,0,1,8.82,25.78l-24.44,54.81A4.49,4.49,0,0,1,457.3,282Z" transform="translate(0 0)"/><path class="cls-3" d="M418.28,78.21l-26-9S376,81.75,383.8,112.86a77,77,0,0,1-3.4,48.32,49.84,49.84,0,0,1-2.62,5.53s29,35,56,9l-10.5-50.5S439.78,91.71,418.28,78.21Z" transform="translate(0 0)"/><path class="cls-9" d="M413.75,65.12c-3.49-5.24-6.25-12.49-2.4-17.47s11.29-4.19,17.11-6.36c8.1-3,12.8-12.55,11.34-21.08S431.49,4.62,423.33,1.72,406-.23,398,3.1c-9.83,4.1-18.26,12-21.8,22.08S374.56,47.29,381.89,55c7.87,8.28,20.21,10.48,31.63,10.35" transform="translate(0 0)"/><path class="cls-9" d="M390.91,20.48c-4.41,3.59-11.13,2-15.86-1.15s-8.56-7.63-13.68-10.1c-9-4.35-19.92-1.45-28.7,3.36s-16.56,11.48-25.83,15.26-21.1,4-28.12-3.17a25.73,25.73,0,0,0,37.71,30.37c10.16-6.19,15.77-19.16,27.16-22.58,6.31-1.89,13.08-.37,19.45,1.28s13,3.43,19.45,2,12.45-7.18,11.63-13.72Z" transform="translate(0 0)"/><path class="cls-6" d="M530,125.29a10.74,10.74,0,0,0-14.21-5.37,10.28,10.28,0,0,0-1.65.93L418.71,99.42l-1.19,23.33,94.22,13.73A10.8,10.8,0,0,0,530,125.29Z" transform="translate(0 0)"/><path class="cls-3" d="M435.45,101.57l-5.83,23.62a4.81,4.81,0,0,1-6.5,3.3l-22.45-9.2a13.38,13.38,0,0,1,6.49-26l24.06,2.29a4.81,4.81,0,0,1,4.34,5.25,5.65,5.65,0,0,1-.11.7Z" transform="translate(0 0)"/><circle class="cls-3" cx="519.01" cy="136.83" r="7"/><path class="cls-8" d="M829,363.83a1,1,0,0,1-1,1H1a1,1,0,0,1,0-2H828A1,1,0,0,1,829,363.83Z" transform="translate(0 0)"/><image width="711" height="711" transform="translate(310.54 134.87) scale(0.05)" xlink:href="pykme/LOGO-PYKME-ICON.png"/></svg>