<?xml version="1.0" encoding="utf-8"?>
<!-- Generator: Adobe Illustrator 25.2.1, SVG Export Plug-In . SVG Version: 6.00 Build 0)  -->
<svg version="1.1" id="a0aa7367-9b86-4056-8781-911de8774112"
	 xmlns="http://www.w3.org/2000/svg" xmlns:xlink="http://www.w3.org/1999/xlink" x="0px" y="0px" viewBox="0 0 804.1 578.1"
	 style="enable-background:new 0 0 804.1 578.1;" xml:space="preserve">
<style type="text/css">
	.st0{fill:#E6E6E6;}
	.st1{fill:#FFFFFF;}
	.st2{fill:#17C600;}
	.st3{fill:#CCCCCC;}
	.st4{fill:#FFB8B8;}
	.st5{fill:#2F2E41;}
	.st6{fill:#3F3D56;}
</style>
<path class="st0" d="M341.5,270h-325C7.4,270,0,262.6,0,253.5v-237C0,7.4,7.4,0,16.5,0h325c9.1,0,16.5,7.4,16.5,16.5v237
	C358,262.6,350.6,270,341.5,270z"/>
<polygon class="st1" points="318.6,269.5 316.4,269.5 282,200.1 281,198.1 255.5,146.8 212.3,59.8 211.3,57.8 182.9,0.5 185.1,0.5 
	213.6,57.8 214.6,59.8 256.6,144.6 257.6,146.6 283.1,197.9 "/>
<rect x="0.5" y="57.9" class="st1" width="357" height="2"/>
<rect x="255.9" y="144.6" class="st1" width="101.6" height="2"/>
<rect x="95.5" y="0.5" class="st1" width="2" height="270"/>
<rect x="96.5" y="198.1" class="st1" width="186.1" height="2"/>
<path class="st2" d="M213,106c0,17-25.1,65.1-34.5,82.6c-1,1.9-3.5,2.7-5.4,1.6c-0.7-0.4-1.3-0.9-1.6-1.6
	C162.1,171.1,137,123,137,106c0-21,17-38,38-38S213,85,213,106z"/>
<circle class="st0" cx="175" cy="106" r="17"/>
<circle class="st2" cx="175" cy="200" r="7"/>
<path class="st0" d="M175.3,304.9c-21.4,0-38.7,17.3-38.7,38.7s17.3,38.7,38.7,38.7S214,365,214,343.6c0,0,0,0,0,0
	C214,322.2,196.6,304.9,175.3,304.9z M175.3,380.2c-20.2,0-36.6-16.4-36.6-36.6c0-20.2,16.4-36.6,36.6-36.6
	c20.2,0,36.6,16.4,36.6,36.6c0,0,0,0,0,0C211.8,363.8,195.5,380.2,175.3,380.2L175.3,380.2z"/>
<path class="st2" d="M194.3,325c-2.2-1.7-5.3-1.3-7,0.9L170,348.5l-7.3-5.6c-2.2-1.7-5.3-1.3-7,0.9c-1.7,2.2-1.3,5.3,0.9,7
	c0,0,0,0,0,0l11.3,8.6l0.1,0c0.9,0.7,1.9,1,3,1c1.6,0,3-0.7,4-2l20.3-26.5C196.9,329.9,196.5,326.7,194.3,325z"/>
<path class="st3" d="M550.8,421.4l-9.6-22.9l-8.3-19.6l-6.8-16.1c-2.5-5.9-9.4-8.7-15.3-6.2l-92,38.8c-5.9,2.5-8.7,9.4-6.2,15.3
	l24.7,58.6c2.5,5.9,9.3,8.7,15.3,6.2c0,0,0,0,0,0l92-38.8C550.5,434.2,553.2,427.3,550.8,421.4z M543.5,434.3l-92,38.8
	c-4.6,1.9-9.9-0.2-11.9-4.8l-24.7-58.6c-0.8-1.8-0.9-3.9-0.4-5.8c0.2-0.9,0.6-1.7,1-2.4c1-1.6,2.5-2.9,4.2-3.7l92-38.8
	c1.9-0.8,4-0.9,5.9-0.4c0.9,0.2,1.7,0.6,2.4,1.1c1.6,1,2.8,2.4,3.6,4.2l7.1,16.8v0l7.7,18.2l10,23.6
	C550.3,427,548.1,432.3,543.5,434.3L543.5,434.3z"/>
<path class="st3" d="M480.9,415.7c-2.5,1-5.2,1.3-7.8,0.8l-59.8-12.8l0.5-2.5l59.8,12.8c4.2,0.9,8.6-0.9,10.9-4.5l34-52.2l2.2,1.4
	l-34,52.2C485.3,413,483.3,414.7,480.9,415.7z"/>
<circle class="st2" cx="480.8" cy="415.7" r="15.6"/>
<path class="st2" d="M652.3,263.8c0,0-20.3-12.8-39.4,2.1L600,399.2c0,0,48,37.3,59.7,2.1L652.3,263.8z"/>
<polygon class="st4" points="657.2,566.7 669.5,566.7 673.6,519.6 657.2,519.4 "/>
<path class="st5" d="M693.1,578.1l-38.5,0l0,0l0-14.9l0,0l23.6,0C686.5,563.2,693.1,569.8,693.1,578.1
	C693.1,578.1,693.1,578.1,693.1,578.1L693.1,578.1L693.1,578.1z"/>
<polygon class="st4" points="612.9,566.7 600.7,566.7 594.8,519.4 612.9,519.4 "/>
<path class="st5" d="M591.9,563.2h23.6l0,0v14.9l0,0H577l0,0l0,0C577,569.8,583.7,563.2,591.9,563.2z"/>
<path class="st5" d="M683.7,399.7l-10.7,158.8l-16.5-0.5l-21.9-127.4l-20.3,125.8l-19.2,1.1l-5.3-164.2
	C589.9,393.3,670.9,375.2,683.7,399.7z"/>
<circle class="st4" cx="633.4" cy="225.8" r="24.6"/>
<path class="st5" d="M648.5,259l6.4,4.3c0,0,26.6,0,28.8,16s8,125.3,1.6,125.3s-7.5-8.5-7.5-8.5s-4.3,1.1-12.8,9.6
	s-13.9,8.5-17.1-4.3s-24.5-110.9-4.3-129L648.5,259z"/>
<path class="st5" d="M617.6,259l-6.4,4.3c0,0-26.6,0-28.8,16s-8,125.3-1.6,125.3s7.5-8.5,7.5-8.5s4.3,1.1,12.8,9.6
	s13.9,8.5,17.1-4.3s24.5-110.9,4.3-129L617.6,259z"/>
<path class="st5" d="M653.4,240.8c5.1-5.4,4.9-13.8-0.5-18.9c-2.6-2.5-6.1-3.8-9.6-3.7c-3.4,0.1-6.6,1.5-9.8,2.5
	c-4.9,1.7-10.2,2.1-15.3,1.4c-5.2-0.8-9.8-3.6-13-7.7c-3-4.2-4-10-1.8-14.7c2.5-5.4,8.3-8.4,13.7-10.8c2.2-1.1,4.5-1.9,7-2.3
	c2.5-0.4,5,0.2,6.9,1.7c1.5,1.3,2.4,3.3,4.1,4.4c1.9,1.3,4.3,1.3,6.6,1.5c13.9,1.4,24,13.7,22.6,27.6c-0.7,7.2-4.5,13.7-10.4,18
	L653.4,240.8z"/>
<path class="st4" d="M528.1,390.2c-1.3-5.8,2.4-11.5,8.2-12.8c0.6-0.1,1.2-0.2,1.9-0.2l16.3-23l10.5,10.7l-15.6,23.4
	c-0.2,6-5.2,10.7-11.1,10.5C533.3,398.6,529.1,395.1,528.1,390.2L528.1,390.2z"/>
<path class="st4" d="M672.7,411.2c-4.3-4-4.6-10.8-0.5-15.2c0.4-0.5,0.9-0.9,1.4-1.3l0.3-28.2l14.8,2.8l0.5,28.1
	c3.3,5,1.8,11.7-3.1,14.9C681.8,415.1,676.3,414.6,672.7,411.2z"/>
<path class="st5" d="M590.4,344.6l-4.2-66.9L585,273c0,0-42.4,54.6-42.5,95.6c0,0,20.8,10.1,24,2.7C567.7,368.3,572,364,590.4,344.6
	L590.4,344.6z"/>
<path class="st5" d="M680,277.7l3.8,2.4c0,0,13.7,60.5,10,101c0,0-21.9,10.1-25.1,2.7S680,277.7,680,277.7z"/>
<path class="st6" d="M803.1,578h-381c-0.6,0-1-0.4-1-1s0.4-1,1-1h381c0.6,0,1,0.4,1,1S803.7,578,803.1,578z"/>
</svg>
