<svg id="Ebene_1" data-name="Ebene 1" xmlns="http://www.w3.org/2000/svg" viewBox="0 0 1920 556"><defs><style>.cls-1{font-size:510.62px;font-family:Nunito-Black, Nunito;}.cls-1,.cls-2{fill:#17c600;}.cls-2{fill-rule:evenodd;}</style></defs><title>Zeichenfläche 1</title><text class="cls-1" transform="translate(0 428.31)">pykm</text><text class="cls-1" transform="translate(1368.12 449.92) rotate(-11.54)">e</text><path class="cls-2" d="M1860.05,43.51C1802-1.7,1717.46,9.78,1671.2,69.15a138.15,138.15,0,0,0-25.62,53.22c-11.76,49.65-12,50.06-1.77,200.78,150.37-28.56,150.15-28.76,196.07-54.53a138.55,138.55,0,0,0,41.5-35.77C1927.64,173.49,1918.09,88.72,1860.05,43.51Zm-86,167.38a58.72,58.72,0,1,1,58.72-58.72A58.72,58.72,0,0,1,1774.09,210.89Z"/></svg>