<svg xmlns="http://www.w3.org/2000/svg" viewBox="0 0 1799.97 477.96">
  <defs>
    <style>
      .a, .b {
        fill: #17c600;
      }

      .b {
        fill-rule: evenodd;
      }
    </style>
  </defs>
  <g>
    <path class="a" d="M244,263c-24.36-12.63-49.76-.54-51,0-30,13-30,33.73-30,34-.11,1,0-14.44,0-6,.07,14-.14,22.91-.53,42.5-.24,11.5-.52,25.55-.72,37.29-.18,10.35-.35,23.26-.53,42.5q-.84,41.52-1.67,83-.47,23.12-13.05,35t-35.19,11.39q-46.26-.93-45.3-48.23L71.43,289C77.93,219.92,130,178.5,192,172c60.5-6.34,115.39,29.84,137,75,30.15,63,9,160-64,187-23.31,8.62-40.94,9.18-50,8-14.65-1.91-20.88-6.32-22-8-8-12-6.19-32.7-6-34,.67-4.65,2-24.54,10-29,9-5,22-3,27-4,20.44-4.09,33.7-7.39,41-27C275.22,312.54,271.55,277.28,244,263Z" transform="translate(-66.02 -64.73)"/>
    <path class="a" d="M441.15,534.82q-15.82,0-25.79-8.17a33.16,33.16,0,0,1-12-21.19q-2-13,4.6-28.34L434,421,354.86,240.19q-10.23-23,0-40.34t39.82-17.36q15.82,0,26.05,7.4t18.38,28.85L482,329.55l44.93-111.32q8.18-20.92,18.64-28.34t28.34-7.4q22.47,0,31.91,17.36t-.76,40.34L489.15,500.6Q480,520.52,469,527.67T441.15,534.82Z" transform="translate(-66.02 -64.73)"/>
    <path class="a" d="M677.3,435.91q-22,0-33.44-11.75T632.37,390V110.68q0-45.95,44.93-45.95,22,0,34,11.74t12,34.21V279.19h1l62.29-75.57q12.76-15.83,23.75-23t29.87-7.15q18.88,0,29.1,9.19a30.45,30.45,0,0,1,10.47,23q.25,13.78-11,27.57l-54.12,64.34L877,376.21Q887.68,391,885.89,404t-12.77,21.45q-11,8.43-27.82,8.43-21,0-32.94-7.41t-24.25-23.23l-63.83-78.64h-1V390Q723.26,435.91,677.3,435.91Z" transform="translate(-66.02 -64.73)"/>
    <path class="a" d="M1110,437c-14.66,0-25.4-4.8-33.24-12.63S1065,405.11,1065,390.1V285.25c-.32-9.28-.9-14.82-5.33-21.3s-13.08-7.1-23.31-7.1c-12.28,0-25.13.24-31.78,9.1S998,278.61,998,295v95.2c0,24.92-19.85,45.57-44.76,45.95q-22.93.35-34.77-11.75Q907,412.61,907,390.1c.16-33.7.47-59.4.47-93.1,0-2-1-37.06,19-74.12,29.57-54.71,121.08-65.72,166.26-32C1108.55,202.63,1113,229,1113,229" transform="translate(-66.02 -64.73)"/>
    <path class="a" d="M1107,229s4.45-26.37,20.28-38.17c45.18-33.67,136.7-22.66,166.27,32,20,37.06,19,72.12,19,74.12,0,33.7.31,59.4.46,93.1q0,22.51-11.51,34.27-11.84,12.09-34.77,11.75c-24.91-.38-44.76-21-44.76-45.95V295c0-16.36.07-20.15-6.58-29s-19.5-9.1-31.77-9.1c-10.23,0-18.88.62-23.31,7.1s-5,12-5.34,21.3V390.1q0,22.51-11.76,34.27C1135.36,432.2,1124.63,437,1110,437" transform="translate(-66.02 -64.73)"/>
  </g>
  <path class="a" d="M1455,289c-4.93,6.09,3.06,27.85,5.46,32.85a69.58,69.58,0,0,0,4.81,8.79c3.11,5,12.73,5.36,15.39,4.91,35-5.9,69.34-24.55,98.89-39.77,14.08-7.25,16.89-15.09,12.45-27.78-8.75-25-24.07-49-40.2-64.39s-32-25.31-56.8-30.61c-28-6-56.46-5.81-80,4-24,10-34.57,19.86-50,37-18,20-25,44-28,58-4.84,22.58-5.48,54.26,3,78.66q13.48,38.55,40.46,60.86t64.3,26.52q37.32,4.2,81.24-11.16a219.49,219.49,0,0,0,37.51-17.23c12-6.93,32.44-23.65,38.44-35.65,4.75-9.51,5.69-12.95,6-22s-7.48-17.68-12.59-24.47-8-11.21-16.41-9.53c-5,1-10.19,5.41-20,14-8,7-20.46,14.22-29.32,19.14a154.78,154.78,0,0,1-23.54,11c-17.89,6.26-37.07,7.73-49.54,4.43-4.63-1.22-7.7-3.16-11.25-5.48-22.39-15.33-32.28-41.32-32.82-58.19A77.47,77.47,0,0,1,1423,261c6-10,15.24-16.15,28.26-20.69s24.11-4.85,34.74-1.31c6,2,13.47,7.57,18,13,5,6,6.39,8.41,8,13-18.94,6.62-34.06,14.38-53,21A9.78,9.78,0,0,0,1455,289Z" transform="translate(-66.02 -64.73)"/>
  <path class="b" d="M1830.82,96.94c-46.06-43.87-119.78-41.25-164.68,5.85a119.65,119.65,0,0,0-26.6,43.59c-14.38,41.71-14.62,42-18.75,172.59,128.93-11.41,129.2-10.79,173.36-30.09a119.83,119.83,0,0,0,38.78-27.21C1877.82,214.56,1876.88,140.81,1830.82,96.94Zm-87.7,130.48a44.58,44.58,0,0,1-39.94-48.8c3-30.41,26.54-42.16,48.79-39.94a44.59,44.59,0,0,1-8.85,88.74Z" transform="translate(-66.02 -64.73)"/>
  <path class="a" d="M1468,293Z" transform="translate(-66.02 -64.73)"/>
</svg>
