<svg id="Ebene_1" data-name="Ebene 1" xmlns="http://www.w3.org/2000/svg" viewBox="0 0 1822.87 488.08"><defs><style>.cls-1,.cls-2{fill:#fff;}.cls-2{fill-rule:evenodd;}</style></defs><path class="cls-1" d="M53.34,527.68Q7.08,526.75,8,479.45L13.43,210.9q.93-46.77,46.66-45.86,41.51.84,44.94,39.81,10.88-18.18,32.38-28.53t47.25-9.83q33.1.66,58.27,17.47t39,47.31q13.85,30.51,13,72.55-.82,41.52-15.63,71.72t-40.62,46q-25.83,15.78-59.45,15.11a102.43,102.43,0,0,1-44.73-10.89q-20.56-10.39-31.26-27.44l-1.67,83q-.47,23.12-13,35T53.34,527.68Zm100.34-159q21,.44,35-15.07t14.67-50.17q.7-35.2-12.64-51t-34.38-16.2q-21.56-.44-35.52,14.8t-14.68,50.44q-.7,34.68,12.65,50.72T153.68,368.68Z" transform="translate(-8.02 -40.74)"/><path class="cls-1" d="M396.15,528.82q-15.82,0-25.79-8.17a33.16,33.16,0,0,1-12-21.19q-2-13,4.6-28.34L389,415,309.86,234.19q-10.23-23,0-40.34t39.82-17.36q15.82,0,26.05,7.4t18.38,28.85L437,323.55l44.93-111.32q8.18-20.92,18.64-28.34t28.34-7.4q22.47,0,31.91,17.36t-.76,40.34L444.15,494.6Q435,514.52,424,521.67T396.15,528.82Z" transform="translate(-8.02 -40.74)"/><path class="cls-1" d="M630.3,432.91q-22,0-33.44-11.75T585.37,387V109.68q0-45.95,44.93-46,22,0,34,11.74t12,34.21V278.19h1l62.29-75.57q12.76-15.83,23.75-23t29.87-7.15q18.88,0,29.1,9.19a30.45,30.45,0,0,1,10.47,23q.25,13.78-11,27.57l-54.12,64.34L830,375.21Q840.68,390,838.89,403t-12.77,21.45q-11,8.43-27.82,8.43-21,0-32.94-7.41t-24.25-23.23l-63.83-78.64h-1V387Q676.26,432.91,630.3,432.91Z" transform="translate(-8.02 -40.74)"/><path class="cls-1" d="M908.47,432.91q-22,0-33.44-11.75T863.54,387v-169q0-45.45,44.42-45.45,40.34,0,43.92,38.81a80.64,80.64,0,0,1,30.89-29.11q19.65-10.73,45.7-10.72,25.53,0,44.17,11.23T1101,217.42a88.71,88.71,0,0,1,34.72-33.95q21.94-12,48.51-12,43.9,0,65.1,26.3t21.19,82V387q0,22.47-12,34.21t-34,11.75q-21.45,0-33.19-11.75T1179.61,387V282.27q0-21.94-6.64-31.66t-22-9.7q-18.9,0-28.85,13.28t-10,37.78v95q0,22.47-11.74,34.21t-33.7,11.75q-22,0-33.7-11.75T1021.32,387V282.27q0-21.94-6.64-31.66t-21.95-9.7q-18.39,0-28.34,13.28t-10,37.78v95Q954.43,432.91,908.47,432.91Z" transform="translate(-8.02 -40.74)"/><path class="cls-1" d="M1468.25,427.89q-45.59,9.3-82,.12t-60.15-34.94q-23.73-25.74-31.89-65.76-7.76-38,3.22-70.82a122.88,122.88,0,0,1,37.23-55.34q26.28-22.5,64.25-30.26,37.47-7.65,68.28,2.42t51.69,36.14q20.88,26.07,28.84,65.06,4,19.75-19.26,24.51l-144.33,29.46q9.52,23.37,27.39,30.81t45.72,1.74a155.4,155.4,0,0,0,24.81-7.7,128.45,128.45,0,0,0,26.19-13.79q15-9.37,27.3-5.83a30,30,0,0,1,18.56,14.67,36.37,36.37,0,0,1,4,24.52q-2.29,13.39-15.12,22.87a153.18,153.18,0,0,1-35.19,20.1A220.06,220.06,0,0,1,1468.25,427.89Zm-53.4-199.58q-20.26,4.13-30.69,18.92T1374.94,286l94.19-19.23q-6.37-23.48-20.2-33.06T1414.85,228.31Z" transform="translate(-8.02 -40.74)"/><path class="cls-2" d="M1794.62,73c-47.5-45.25-123.55-42.55-169.85,6a123.28,123.28,0,0,0-27.44,45c-14.83,43-15.08,43.36-19.34,178,136-12,135.78-12.23,178.81-31a123.71,123.71,0,0,0,40-28.07C1843.09,194.3,1842.12,118.24,1794.62,73Zm-90.46,134.58a46,46,0,0,1-41.2-50.32c3.13-31.38,27.38-43.49,50.33-41.2a46,46,0,1,1-9.13,91.52Z" transform="translate(-8.02 -40.74)"/></svg>