<svg id="f5e174db-67f0-4559-b457-fe92eb54ed0d" xmlns="http://www.w3.org/2000/svg" viewBox="0 0 704.36 635"><defs><style>.cls-1{fill:#e6e6e6;}.cls-2{fill:#fff;}.cls-3{fill:#ccc;}.cls-4{fill:#17c600;}.cls-5{fill:#a0616a;}.cls-6{fill:#2f2e41;}.cls-7{fill:#ffb8b8;}</style></defs><path class="cls-1" d="M437.63,369h-258a33,33,0,0,1-33-33V33a33,33,0,0,1,33-33h240l51,40.63V336A33,33,0,0,1,437.63,369Z" transform="translate(0)"/><path class="cls-2" d="M179.63,9.5A23.53,23.53,0,0,0,156.13,33V336a23.53,23.53,0,0,0,23.5,23.5h258a23.52,23.52,0,0,0,23.5-23.5V45.21L416.34,9.5Z" transform="translate(0)"/><path class="cls-3" d="M387.45,97.6H270a5.5,5.5,0,1,1,0-11H387.45a5.5,5.5,0,0,1,0,11Z" transform="translate(0)"/><path class="cls-3" d="M410.12,116.15H270a5.5,5.5,0,1,1,0-11H410.12a5.5,5.5,0,0,1,0,11Z" transform="translate(0)"/><path class="cls-3" d="M387.45,180.72H270a5.5,5.5,0,1,1,0-11H387.45a5.5,5.5,0,0,1,0,11Z" transform="translate(0)"/><path class="cls-3" d="M410.12,199.27H270a5.5,5.5,0,1,1,0-11H410.12a5.5,5.5,0,0,1,0,11Z" transform="translate(0)"/><path class="cls-3" d="M387.45,263.84H270a5.5,5.5,0,1,1,0-11H387.45a5.5,5.5,0,0,1,0,11Z" transform="translate(0)"/><path class="cls-3" d="M410.12,282.39H270a5.5,5.5,0,0,1,0-11H410.12a5.5,5.5,0,0,1,0,11Z" transform="translate(0)"/><circle id="b6fa6563-5e20-492f-ac6f-1d924df782c1" class="cls-4" cx="221.07" cy="101.38" r="19.42"/><path id="bcd12bac-9f30-4deb-ae50-48c1cb737c9b" class="cls-2" d="M219.15,108.79a2,2,0,0,1-1.21-.4l0,0-4.56-3.49a2,2,0,0,1,2.47-3.22l3,2.27,7-9.12a2,2,0,0,1,2.84-.37h0l0,.06.05-.06a2,2,0,0,1,.37,2.84L220.76,108a2,2,0,0,1-1.61.79Z" transform="translate(0)"/><circle id="b95850ed-3210-4af9-b38f-3ce1288a2453" class="cls-3" cx="223.07" cy="184.5" r="19.42"/><circle id="b1885188-7f5c-4441-a082-07b02d322a90" class="cls-3" cx="221.07" cy="267.62" r="19.42"/><path class="cls-1" d="M469.64,41.94H429.71a11,11,0,0,1-11-11h0V1.45a.69.69,0,0,1,.69-.68.66.66,0,0,1,.42.15l50.24,39.79a.69.69,0,0,1-.43,1.23Z" transform="translate(0)"/><path class="cls-2" d="M199.35,425.77,46.7,458a17,17,0,0,1-20.14-13.13L.37,320.55A17,17,0,0,1,13.5,300.41l152.64-32.18a17,17,0,0,1,20.14,13.13l26.2,124.27A17,17,0,0,1,199.35,425.77Z" transform="translate(0)"/><path class="cls-3" d="M199.35,425.77,46.7,458a17,17,0,0,1-20.14-13.13L.37,320.55A17,17,0,0,1,13.5,300.41l152.64-32.18a17,17,0,0,1,20.14,13.13l26.2,124.27A17,17,0,0,1,199.35,425.77ZM13.91,302.37A15,15,0,0,0,2.32,320.14l26.2,124.27A15,15,0,0,0,46.29,456l152.65-32.17A15,15,0,0,0,210.52,406L184.33,281.77a15,15,0,0,0-17.78-11.58Z" transform="translate(0)"/><path id="b3d30341-bfe2-418c-85c9-1bd82b5f5e0c" class="cls-3" d="M156.66,309.21l-77,16.24a2.73,2.73,0,0,1-3.23-1.87,2.63,2.63,0,0,1,1.86-3.22l.14,0,78.42-16.53c3.06,1.73,2.09,4.94-.15,5.41Z" transform="translate(0)"/><path id="ba7e3b3b-1e3b-4053-b678-ceb2b593f6ee" class="cls-3" d="M159.51,322.72,82.47,339a2.74,2.74,0,0,1-3.23-1.86,2.62,2.62,0,0,1,1.86-3.22l.14,0,78.42-16.53c3.06,1.73,2.09,4.94-.16,5.41Z" transform="translate(0)"/><path id="f6076b75-2d9c-4839-8b09-e00257d358cf" class="cls-3" d="M67.44,350.16l-23.52,5a3,3,0,0,1-3.5-2.28l-5.85-27.75a3,3,0,0,1,2.28-3.51l23.52-4.95a3,3,0,0,1,3.5,2.28l5.85,27.75A3,3,0,0,1,67.44,350.16Z" transform="translate(0)"/><path id="acc57b87-b2e4-43d3-aa96-a8e2462d330c" class="cls-3" d="M165.11,350.44,47.54,375.22a2.74,2.74,0,0,1-3.23-1.86,2.62,2.62,0,0,1,1.86-3.22l.14,0,119-25.07c3.06,1.72,2.09,4.93-.16,5.41Z" transform="translate(0)"/><path id="e5415755-f7b6-4857-8e09-1413b7f93e97" class="cls-3" d="M168,364,50.39,388.74a2.73,2.73,0,0,1-3.23-1.87A2.63,2.63,0,0,1,49,383.65l.14,0,119-25.07C171.18,360.27,170.21,363.48,168,364Z" transform="translate(0)"/><path id="afce3f4d-2700-4434-8207-f3b7a686e1c3" class="cls-3" d="M170.81,377.46,53.24,402.25A2.73,2.73,0,0,1,50,400.38a2.62,2.62,0,0,1,1.86-3.22l.13,0,119-25.08c3.06,1.73,2.1,4.94-.15,5.41Z" transform="translate(0)"/><path id="abb1f551-863d-408b-9aec-d87e952e72e4" class="cls-3" d="M173.66,391,56.08,415.76a2.73,2.73,0,0,1-3.23-1.86,2.63,2.63,0,0,1,1.87-3.22l.13,0,119-25.07c3.06,1.73,2.1,4.94-.15,5.41Z" transform="translate(0)"/><path id="bbed1b24-9150-4534-8e9c-e5347be55157" class="cls-3" d="M176.51,404.49,58.93,429.27a2.74,2.74,0,0,1-3.23-1.86,2.63,2.63,0,0,1,1.86-3.22l.14,0,119-25.07c3.06,1.72,2.09,4.93-.15,5.41Z" transform="translate(0)"/><path class="cls-5" d="M197.26,342.62a10.74,10.74,0,0,0-.68,1.51l-48.14,11.95-8.37-8.67-14.72,10.93,13.33,16.78a8,8,0,0,0,9.29,2.42L200.2,356.2A10.49,10.49,0,1,0,198,341.53a9.69,9.69,0,0,0-.71,1.09Z" transform="translate(0)"/><path class="cls-5" d="M33,448.91a10.71,10.71,0,0,0,6.38-15.18l33.13-92.07-23-4.08L24.14,429.36A10.8,10.8,0,0,0,33,448.91Z" transform="translate(0)"/><path class="cls-4" d="M68.26,358l-22.71-8.72a4.8,4.8,0,0,1-2.77-6.22,4.12,4.12,0,0,1,.3-.64L55,321.3A13.38,13.38,0,0,1,79.94,331l-5.25,23.59a4.83,4.83,0,0,1-5.75,3.66,5.35,5.35,0,0,1-.68-.21Z" transform="translate(0)"/><polygon class="cls-5" points="119.52 621.77 131.78 621.76 137.62 574.48 119.52 574.48 119.52 621.77"/><path class="cls-6" d="M116.4,617.76h24.14a15.39,15.39,0,0,1,15.39,15.39h0v.5H116.4Z" transform="translate(0)"/><polygon class="cls-5" points="50.52 621.77 62.78 621.76 68.61 574.48 50.52 574.48 50.52 621.77"/><path class="cls-6" d="M47.4,617.76H71.54a15.39,15.39,0,0,1,15.39,15.39h0v.5H47.4Z" transform="translate(0)"/><path class="cls-6" d="M63.38,602.73H47.86a4.5,4.5,0,0,1-4.5-4.5,1.48,1.48,0,0,1,0-.21l7.37-158.33.46,0,74.92-1.95,14.66,158.42a4.5,4.5,0,0,1-4.05,4.91h-.07l-17.43,1.39a4.5,4.5,0,0,1-4.76-3.58L92.18,486.09a1.45,1.45,0,0,0-1.47-1.2h0a1.45,1.45,0,0,0-1.46,1.21l-21.45,113A4.5,4.5,0,0,1,63.38,602.73Z" transform="translate(0)"/><circle class="cls-5" cx="91.79" cy="273.91" r="24.56"/><path class="cls-4" d="M83.56,458.24c-11.7,0-23.73-3.08-33.7-12.17a4.59,4.59,0,0,1-1.47-3.85c1.07-9.59,6.25-59.08,3.33-92.15a40,40,0,0,1,13-33.3,39.58,39.58,0,0,1,34-9.83h0l.92.17c19.66,3.8,33.32,22,31.78,42.33-2.26,29.66-4.28,69.78-1.11,92.46a4.49,4.49,0,0,1-2.41,4.64C120.59,450.19,102.49,458.24,83.56,458.24Z" transform="translate(0)"/><path class="cls-4" d="M115.61,359.77a4.8,4.8,0,0,1-2.11-3.41l-3-24a13.38,13.38,0,0,1,25.75-7.25l9.86,22.16a4.82,4.82,0,0,1-2.44,6.36c-.22.09-.44.17-.67.24l-23.44,6.52A4.79,4.79,0,0,1,115.61,359.77Z" transform="translate(0)"/><path class="cls-6" d="M83.22,298.13a17.72,17.72,0,0,1-6.79-1.23c-1-.37-1.94-.67-2.89-1-8.39-3.24-13.91-12.17-14.11-21.16S63.88,257,70.8,251.24s15.86-8.7,24.83-9.38c9.65-.74,20.53,1.71,25.92,9.75,1.44,2.14,2.44,4.74,1.59,7.32a4.66,4.66,0,0,1-1.32,2c-2.41,2.15-4.81.53-7.27.39-3.37-.19-6.41,2.54-7.5,5.74s-.61,6.73.27,10a24.37,24.37,0,0,1,1.26,6.08,6.1,6.1,0,0,1-2.53,5.38c-2.11,1.27-4.88.54-7-.74s-3.94-3-6.22-4-5.34-.73-6.67,1.35a7.52,7.52,0,0,0-.84,2.44c-1.19,5.42-.92,5.1-2.11,10.52Z" transform="translate(0)"/><path class="cls-3" d="M191.67,635H1.67a1,1,0,1,1,0-2h190a1,1,0,0,1,0,2Z" transform="translate(0)"/><path class="cls-2" d="M678,428.63,542,505a17,17,0,0,1-23.14-6.51L456.68,387.67a17,17,0,0,1,6.51-23.14l136.06-76.32a17,17,0,0,1,23.14,6.51l62.13,110.77A17,17,0,0,1,678,428.63Z" transform="translate(0)"/><path class="cls-3" d="M678,428.63,542,505a17,17,0,0,1-23.14-6.51L456.68,387.67a17,17,0,0,1,6.51-23.14l136.06-76.32a17,17,0,0,1,23.14,6.51l62.13,110.77A17,17,0,0,1,678,428.63ZM464.17,366.27a15,15,0,0,0-5.74,20.42l62.13,110.77A15,15,0,0,0,541,503.2l136-76.31a15,15,0,0,0,5.75-20.43L620.65,295.7A15,15,0,0,0,600.23,290Z" transform="translate(0)"/><path id="b4188fdd-8694-46fd-b6a9-2365408da1f7" class="cls-3" d="M602.44,330.15l-68.66,38.51a2.72,2.72,0,0,1-3.64-.81,2.62,2.62,0,0,1,.81-3.63l.12-.07L601,324.94c3.44.73,3.47,4.09,1.47,5.21Z" transform="translate(0)"/><path id="e79bc6ad-6d6d-496e-bd80-f918a84d8140" class="cls-3" d="M609.2,342.19l-68.67,38.52a2.73,2.73,0,0,1-3.64-.81,2.63,2.63,0,0,1,.82-3.63l.12-.08,69.9-39.2c3.43.73,3.47,4.08,1.47,5.2Z" transform="translate(0)"/><path id="b0898467-4323-4072-9ee9-29d386bbe07d" class="cls-3" d="M529.53,395.89l-20.95,11.76a3,3,0,0,1-4-1.14l-13.87-24.73a3,3,0,0,1,1.13-4l21-11.76a3,3,0,0,1,4,1.13l13.87,24.73a3,3,0,0,1-1.14,4Z" transform="translate(0)"/><path id="aea6c33f-bf9b-47d5-9d2e-017fc614339c" class="cls-3" d="M622.83,367,518,425.75a2.74,2.74,0,0,1-3.64-.81,2.63,2.63,0,0,1,.82-3.63l.12-.08,106-59.47C624.8,362.49,624.83,365.84,622.83,367Z" transform="translate(0)"/><path id="b16b06d0-f954-457b-b4c1-332719c9f6d6" class="cls-3" d="M629.59,379,524.79,437.8a2.74,2.74,0,0,1-3.64-.82,2.64,2.64,0,0,1,.82-3.63l.12-.07,106-59.47c3.44.73,3.47,4.08,1.47,5.2Z" transform="translate(0)"/><path id="b3c0d144-cc2c-4ac0-a007-a1ff15c76ba0" class="cls-3" d="M636.34,391.05l-104.8,58.79a2.72,2.72,0,0,1-3.63-.82,2.63,2.63,0,0,1,.81-3.63l.12-.07,106-59.47c3.44.73,3.47,4.08,1.47,5.2Z" transform="translate(0)"/><path id="b05e8afe-5132-428a-bb53-4b9505cb52a3" class="cls-3" d="M643.1,403.1,538.3,461.88a2.72,2.72,0,0,1-3.64-.81,2.64,2.64,0,0,1,.82-3.63l.12-.07,106-59.48c3.44.74,3.47,4.09,1.47,5.21Z" transform="translate(0)"/><path id="a26c59cb-bc72-4a1e-9571-41d1cd64f8ea" class="cls-3" d="M649.85,415.14,545.06,473.93a2.74,2.74,0,0,1-3.64-.82,2.63,2.63,0,0,1,.81-3.63l.12-.07,106-59.47c3.44.73,3.48,4.08,1.47,5.2Z" transform="translate(0)"/><path class="cls-7" d="M631.57,460.27a9.45,9.45,0,0,0-6.28-13.07l-2.85-33.47-13.71,10.81,4.81,30.13a9.51,9.51,0,0,0,18,5.6Z" transform="translate(0)"/><path class="cls-4" d="M622.7,443.69l-11.38,1.36a4.22,4.22,0,0,1-4.7-3.7,1.66,1.66,0,0,1,0-.32l-1.66-38.4-21.58-58.94a12.19,12.19,0,0,1,.64-11.57,16.33,16.33,0,0,1,1.81-2.33A12.07,12.07,0,0,1,596.36,326a12.64,12.64,0,0,1,9.49,6.58l14.07,29.49A83.82,83.82,0,0,1,628,401.68l-1.58,38a4.24,4.24,0,0,1-3.67,4Z" transform="translate(0)"/><polygon class="cls-7" points="663.12 609.66 652.57 614.3 629.68 575.79 645.26 568.96 663.12 609.66"/><path class="cls-6" d="M670.31,618.71l-34,14.94-.19-.43a14.47,14.47,0,0,1,7.43-19.06h0L664.31,605Z" transform="translate(0)"/><polygon class="cls-7" points="521.43 622.48 509.91 622.48 504.43 578.02 521.44 578.02 521.43 622.48"/><path class="cls-6" d="M524.38,633.65H487.21v-.47a14.47,14.47,0,0,1,14.47-14.47h22.7Z" transform="translate(0)"/><path class="cls-6" d="M633.65,607.28,569.45,464a1.41,1.41,0,0,0-2.66.18l-39.12,138.4a4.2,4.2,0,0,1-4.5,3.1l-21.37-2.14A4.25,4.25,0,0,1,498,599c6.8-84.52,17.51-164.3,49.6-216.52l.17-.28,48.55,9.52,64.81,206.38a4.25,4.25,0,0,1-2.76,5.26l-19.54,6.28a4.21,4.21,0,0,1-5.18-2.35Z" transform="translate(0)"/><circle class="cls-7" cx="571.24" cy="285.98" r="23.09"/><path class="cls-4" d="M544.62,386.47l-.29-.06-.07-.29c-3.12-13.14-3.19-27.47-.22-42.61a33.45,33.45,0,0,1,33.5-27.07h0a33.52,33.52,0,0,1,32.82,32.23c1,26-9.65,48.6-9.75,48.82l-.16.33Z" transform="translate(0)"/><path class="cls-7" d="M482.72,430.4a9.46,9.46,0,0,0,8-10.74,9.1,9.1,0,0,0-.39-1.62l26.6-20.52-16.51-5.67-22.73,20.36a9.51,9.51,0,0,0,5.06,18.19Z" transform="translate(0)"/><path class="cls-4" d="M497.25,414.92a4.22,4.22,0,0,1-5.4-1l-7.31-8.83a4.22,4.22,0,0,1,.56-5.95l.26-.2,31.38-22.19,37.87-50.07A12.13,12.13,0,0,1,564.68,321a16.14,16.14,0,0,1,2.94.25h0a12.11,12.11,0,0,1,8.87,6.85,12.61,12.61,0,0,1-.4,11.54l-28,45.41-.06.1Z" transform="translate(0)"/><path class="cls-6" d="M575.37,284.55c-1.71-2.8-5.46-3.59-8.72-3.27s-6.43,1.46-9.71,1.44c-9.1-.07-16.12-11.16-12.29-19.41,3.13-6.77,11-9.74,18.05-12.08,14.86-4.89,31.93-9.59,45.41-1.66a28.21,28.21,0,0,1,13.58,25.14c-.3,6.24-2.69,12.66-.67,18.57,2.33,6.82,9.73,10.48,16.72,12.25,12.25,3.1,25.16,2.6,37.49,5.39s25,10.17,28.28,22.37c2.18,8-.09,16.63-3.87,24a62.23,62.23,0,0,1-83.7,27.16c-1.05-.54-2.08-1.1-3.1-1.7-14.9-8.7-25.66-23.41-32.08-39.43a132.58,132.58,0,0,1-7.63-29c-1.43-9.29-.22-18.68,2.39-27.71A2.56,2.56,0,0,0,575.37,284.55Z" transform="translate(0)"/><path class="cls-3" d="M658.67,635h-190a1,1,0,0,1,0-2h190a1,1,0,1,1,0,2Z" transform="translate(0)"/></svg>