<?xml version="1.0" encoding="utf-8"?>
<!-- Generator: Adobe Illustrator 25.2.1, SVG Export Plug-In . SVG Version: 6.00 Build 0)  -->
<svg version="1.1" id="e13f2ed2-f963-4a2e-9492-8c50f36be835"
	 xmlns="http://www.w3.org/2000/svg" xmlns:xlink="http://www.w3.org/1999/xlink" x="0px" y="0px" viewBox="0 0 918.6 432.1"
	 style="enable-background:new 0 0 918.6 432.1;" xml:space="preserve">
<style type="text/css">
	.st0{fill:#3F3D56;}
	.st1{fill:#CCCCCC;}
	.st2{fill:#FFFFFF;}
	.st3{fill:#17C600;}
	.st4{fill:#E6E6E6;}
	.st5{fill:#FFB8B8;}
	.st6{fill:#2F2E41;}
	.st7{opacity:0.1;enable-background:new    ;}
</style>
<path class="st0" d="M184.4,306.4c-5.6,0-10.2,4.6-10.2,10.2v23.9c0,5.6,4.6,10.2,10.2,10.2h12.9c5.6,0,10.2-4.6,10.2-10.2v-23.9
	c0-5.6-4.6-10.2-10.2-10.2H184.4z"/>
<path class="st0" d="M423.8,351.5h-12.9c-6.1,0-11-4.9-11-11v-23.9c0-6.1,4.9-11,11-11h12.9c6.1,0,11,4.9,11,11v23.9
	C434.8,346.6,429.8,351.5,423.8,351.5z"/>
<path class="st1" d="M415.2,332.4h-223c-10.1,0-18.4-6-18.4-13.3v-42.9l11.1-11.7h239.8l8.9,11.7V319
	C433.6,326.4,425.3,332.4,415.2,332.4z"/>
<path class="st1" d="M423.6,286H186.1l-2.4-37l1.5-3.8l8.9-22H414l12.1,24.9L423.6,286z"/>
<polygon class="st2" points="425.6,248.2 423.9,276 371.6,276 371.6,255.4 424.2,245.1 "/>
<polygon class="st2" points="237.3,255.4 237.3,276 185.9,276 184.1,249 185.6,245.3 "/>
<path class="st1" d="M412.6,229.5H195.5l23.2-77.2c1.9-6.5,7.9-11.1,14.8-11.1l143.8-1.4c7.2-0.1,13.4,4.7,15.2,11.7L412.6,229.5z"
	/>
<path class="st2" d="M395.9,222.2l-183.8-2.2c-0.8,0-1.5-0.7-1.5-1.5c0-0.1,0-0.3,0.1-0.4l17.6-55c0.2-0.6,0.8-1,1.4-1h147.8
	c0.6,0,1.2,0.4,1.4,1l18.3,57.1c0.3,0.8-0.2,1.6-1,1.9C396.2,222.2,396.1,222.2,395.9,222.2z"/>
<path class="st3" d="M328.8,149.3h-49.5c-0.4,0-0.8-0.4-1-1.1c-0.2-0.7-0.2-1.4,0.1-2.1l4.1-10.3c0.2-0.5,0.5-0.8,0.9-0.8h41.4
	c0.4,0,0.7,0.3,0.9,0.8l4.1,10.3c0.2,0.7,0.3,1.4,0.1,2.1C329.6,148.9,329.3,149.3,328.8,149.3z"/>
<path class="st1" d="M195.6,228h-32.6v-7.2c0-4.8,3.9-8.7,8.7-8.7h23.8V228z"/>
<path class="st1" d="M445.1,228h-32.6v-15.9h23.8c4.8,0,8.7,3.9,8.7,8.7V228z"/>
<rect x="-4.6" y="368.1" transform="matrix(0.9411 -0.3381 0.3381 0.9411 -120.0806 48.7679)" class="st0" width="169.2" height="2"/>
<rect x="526.2" y="284.5" transform="matrix(0.338 -0.9411 0.9411 0.338 1.6234 740.5247)" class="st0" width="2" height="169.2"/>
<path class="st4" d="M312.9,381.1h-9.5v-12.3h9.5V381.1z M312.9,356.4h-9.5v-12.3h9.5V356.4z"/>
<path class="st4" d="M312.9,432.1h-9.5v-12.3h9.5V432.1z M312.9,407.4h-9.5v-12.3h9.5V407.4z"/>
<polygon class="st5" points="731.8,389.5 721.3,389.5 716.3,349 731.8,349 "/>
<path class="st6" d="M734.4,399.7h-33.9v-0.4c0-7.3,5.9-13.2,13.2-13.2h20.7L734.4,399.7z"/>
<polygon class="st5" points="867.1,369.6 858.1,375 833,342.9 846.3,334.9 "/>
<path class="st6" d="M845.7,394.4l-0.2-0.4c-3.7-6.2-1.7-14.3,4.5-18.1l17.7-10.6l7,11.7L845.7,394.4z"/>
<path class="st6" d="M734.5,381.2l-0.2,0c-5.1,0-10.2-0.3-15.3-0.9c-1.9-0.2-4-0.4-6.6-0.6l-0.1,0c-1.7-0.5-1.8-16.7-1-72.1
	c0.4-28.4,0.8-60.5,0.3-81l0-0.2l0.2-0.1c18.7-16.3,42.8-22.4,67.7-17.2l0.2,0l0.1,0.2c10.3,17.5,25.9,42.6,41,66.9
	c34.6,55.8,44.5,72.2,43.4,73.5l-0.1,0.1c-2.4,1.2-4.1,2.1-5.6,2.9c-5,2.6-7.1,3.7-18.4,8.3l-0.3,0.1l-0.2-0.2
	c-35.1-38.5-64.3-81.4-82.4-121.1c-2.1,13.6-4.7,31.3-7.4,50c-7.8,53.8-13,89.2-15.2,91.4L734.5,381.2z"/>
<path class="st6" d="M789,54.9c3.5-14.6,6.5-31.1-0.1-44.5c-4.6-9.3-21.7-12.5-31.5-9.1s-16.9,12.5-20,22.4
	c-3.1,9.9-2.8,20.6-1.4,31C753.9,54.3,772,54,789,54.9z"/>
<circle class="st5" cx="758.6" cy="33.9" r="21"/>
<path class="st6" d="M784.3,29.5c0.3-14.6-11.3-26.6-25.9-26.9S731.7,14,731.4,28.5c0,0.6,0,1.1,0,1.7
	C749.5,30.3,767.5,30.3,784.3,29.5z"/>
<path class="st0" d="M743.9,230.8c20.9-0.1,41.7,3.4,61.5,10.3c0.7-33.2-10.7-66.4-31.4-91.2l-0.2-0.2l0.1-0.2
	c5.5-15.9,11.2-32.4,16.3-48.8l-0.1-0.3c-3.6-12.7-11.2-25.5-23.4-39.2c-2.7-2.8-7.2-3.1-10.2-0.5c-21.7,19.9-33.5,49.6-30.8,77.7
	l0,0.1l0,0.1c-9.5,32.4-13,49-16.1,63.6c-2.2,10.7-4.2,20-8,33.2C715.5,232.3,729.7,230.8,743.9,230.8z"/>
<polygon class="st7" points="774.7,128.5 743.7,196.1 725.9,178.2 "/>
<path class="st0" d="M705,166.1l2.2,4.2c0,0.1,0,0.2-0.1,0.2l-0.1,0.1l11.3,21.9c0.7,1.3,0.2,2.8-1.1,3.5l-13.7,7
	c-1.3,0.6-2.8,0.2-3.5-1.1l0,0l0,0l-10.9-21.2l-0.1,0c-0.1,0-0.1,0-0.2,0l-1.2-2.4c0-0.1,0-0.1,0.1-0.2l0,0l0,0l0.1,0l-0.5-0.9
	l-0.1,0c-0.1,0-0.1,0-0.2-0.1l-1.2-2.4c0-0.1,0-0.1,0.1-0.2l0.1,0l-0.6-1.2l-0.1,0c-0.1,0-0.1,0-0.1,0l0,0l-0.7-1.3
	c0-0.1,0-0.1,0-0.1l0.1,0l-1.3-2.6c-0.6-1.3-0.2-2.8,1.1-3.5l13.7-7c1.3-0.7,2.8-0.2,3.5,1.1l3.2,6.1l0.1-0.1
	C704.9,165.9,705,166,705,166.1z"/>
<path class="st3" d="M700.7,160.9l16.6,32.3c0.4,0.8,0.1,1.8-0.7,2.2l-13.1,6.7c-0.8,0.4-1.8,0.1-2.2-0.7l0,0l-16.6-32.3
	c-0.4-0.8-0.1-1.8,0.7-2.2l0,0l2-1l0.1,0.3c0.3,0.7,1.1,0.9,1.8,0.6c0,0,0,0,0,0l6.7-3.4c0.7-0.3,0.9-1.2,0.6-1.8l-0.1-0.3l2.1-1.1
	C699.3,159.8,700.3,160.1,700.7,160.9L700.7,160.9z"/>
<path class="st5" d="M705.5,200.4c4.7-0.3,8.3-4.4,8-9.2c0-0.5-0.1-1-0.2-1.5l25.6-16.8l-14.6-6.3l-22.1,16.9
	c-4.6,1.5-7,6.3-5.6,10.9C697.8,198.2,701.5,200.7,705.5,200.4z"/>
<path class="st0" d="M730.1,188.3l-0.3-0.2c-6.1-4.5-12.9-9.1-19.4-13.6l-0.4-0.3l0.3-0.4c14-16.3,27.9-33.4,41.4-49.9
	c0,0,0,0,0-0.1l0.1-0.1l0.1-0.1l0,0l0.1,0l-0.4,0l-4.2-32.7c-3.8-5.1-4.5-15.3,0.4-22.4c5.1-7.4,15.9-9.8,23.1-5.3
	c3.8,2.6,6.3,6.7,6.7,11.3c0.5,4.1-0.8,8.2-3.6,11.2c1.8,17.3,1.8,32.7,1.9,47.7l0,0.1l-0.1,0.1c-14.4,18.3-30.2,36.5-45.5,54.1
	L730.1,188.3z"/>
<circle class="st3" cx="303.8" cy="51.8" r="47.3"/>
<polygon class="st2" points="299.3,71.8 285.1,53.6 293.4,47.2 300.1,55.8 322.7,31.9 330.3,39.1 "/>
<path class="st0" d="M917.6,401h-239c-0.6,0-1-0.4-1-1s0.4-1,1-1h239c0.6,0,1,0.4,1,1S918.1,401,917.6,401z"/>
</svg>
