<svg id="Ebene_1" data-name="Ebene 1" xmlns="http://www.w3.org/2000/svg" viewBox="0 0 801.59 647.18"><defs><style>.cls-1{fill:#3f3d56;}.cls-2{fill:#fff;}.cls-3{fill:#e6e6e6;}.cls-4{fill:#17c600;}.cls-5{fill:#a0616a;}.cls-6{fill:#2f2e41;}</style></defs><g id="Group_6" data-name="Group 6"><path id="Path_80" data-name="Path 80" class="cls-1" d="M769.82,0H529.21a51.15,51.15,0,0,0-49.9,39.9L357.73,579.17A41.34,41.34,0,0,0,389,628.59a41.94,41.94,0,0,0,7,1l247.36,12.19a54.62,54.62,0,0,0,56.43-44.83l69-381.27,5.13,1.47,13.2-72.27-5.28-1.32L801.08,37.1A31.48,31.48,0,0,0,769.83,0Z" transform="translate(0 0)"/><path id="Path_81" data-name="Path 81" class="cls-2" d="M560.88,11.63H532.8a35.34,35.34,0,0,0-34.54,27.81L381.56,574.31a21.9,21.9,0,0,0,16.72,26.06,21,21,0,0,0,3.25.46L648.08,617a28.36,28.36,0,0,0,29.77-23.28L777.43,40.88A24.83,24.83,0,0,0,753,11.63H726.34A11.73,11.73,0,0,0,715,20.3h0A10.33,10.33,0,0,1,705,28H578.53A17.69,17.69,0,0,1,560.88,11.63Z" transform="translate(0 0)"/><path id="Path_93" data-name="Path 93" class="cls-3" d="M697.17,385.54a2,2,0,0,0,2-1.63L753.73,83a2,2,0,0,0-.41-1.63,2,2,0,0,0-1.5-.73L503.76,77.7h0a2,2,0,0,0-1.92,1.56L437.53,370.41a2,2,0,0,0,.36,1.65,2,2,0,0,0,1.47.78Z" transform="translate(0 0)"/><path id="Path_94" data-name="Path 94" class="cls-3" d="M481.91,405a1,1,0,0,0-1,.77l-2.32,10a1,1,0,0,0,.75,1.2l.15,0,131.23,9.33a1,1,0,0,0,1-.81L614,414a1,1,0,0,0-.79-1.17h-.13L482,405Z" transform="translate(0 0)"/><path id="Path_95" data-name="Path 95" class="cls-3" d="M641.35,463.26a1,1,0,0,0,1-.76L645.24,451a1,1,0,0,0-.73-1.21l-.17,0L476.75,438a1,1,0,0,0-1,.72l-3,10a1,1,0,0,0,.67,1.24.78.78,0,0,0,.21,0Z" transform="translate(0 0)"/><path id="Path_96" data-name="Path 96" class="cls-3" d="M632.35,500.26a1,1,0,0,0,1-.76L636.24,488a1,1,0,0,0-.73-1.21l-.17,0L467.75,475a1,1,0,0,0-1,.72l-3,10a1,1,0,0,0,.67,1.24.78.78,0,0,0,.21,0Z" transform="translate(0 0)"/><path id="Path_79" data-name="Path 79" class="cls-3" d="M341.78,630.52c0,8.37-76.61,9.26-170.89,15.15S0,638.89,0,630.52s77.05-25.21,170.89-15.15C265.17,625.47,341.78,622.15,341.78,630.52Z" transform="translate(0 0)"/><path id="Path_97" data-name="Path 97" class="cls-4" d="M555.16,563.51a1,1,0,0,0,1.06-.75l6-24a1,1,0,0,0-.73-1.21.45.45,0,0,0-.16,0l-102.91-8.66a1,1,0,0,0-1.06.78l-5.13,23.08a1,1,0,0,0,.75,1.2l.13,0Z" transform="translate(0 0)"/><path id="Path_111" data-name="Path 111" class="cls-5" d="M139.61,465.51a10.76,10.76,0,0,0,2.79-14.94,10.54,10.54,0,0,0-1.21-1.46l4.17-93-21.22,2.38,1.24,91a10.8,10.8,0,0,0,14.23,16.05Z" transform="translate(0 0)"/><path id="Path_112" data-name="Path 112" class="cls-5" d="M178.31,623l12.08,2.12,11.93-45.57-15.82-3.13Z" transform="translate(0 0)"/><path id="Path_113" data-name="Path 113" class="cls-6" d="M211.71,640.39l-38-6.67,2.57-14.66,23.29,4.1a14.89,14.89,0,0,1,12.09,17.24h0Z" transform="translate(0 0)"/><path id="Path_114" data-name="Path 114" class="cls-5" d="M145.17,629h12.26l5.83-47.29H145.17Z" transform="translate(0 0)"/><path id="Path_115" data-name="Path 115" class="cls-6" d="M181.07,640.4H142.54V625.51h23.64a14.89,14.89,0,0,1,14.89,14.89Z" transform="translate(0 0)"/><path id="Path_116" data-name="Path 116" class="cls-6" d="M196.32,612.06l-.57,0-14.43-1.19a4.88,4.88,0,0,1-4.28-5.42l0-.24L191.4,534.5l-9-47.47a1.63,1.63,0,0,0-3.22.16L165.92,607.81a4.93,4.93,0,0,1-5.21,4.44l-13.6-.51a4.88,4.88,0,0,1-4.53-4.63l1.08-145.77,70.48-8.81,4.93,76.05,0,.08-18,79.67A4.88,4.88,0,0,1,196.32,612.06Z" transform="translate(0 0)"/><circle id="Ellipse_16" data-name="Ellipse 16" class="cls-5" cx="166.91" cy="271.26" r="24.56"/><path id="Path_117" data-name="Path 117" class="cls-4" d="M190.05,472.44a20.17,20.17,0,0,1-10.86-3.11c-11.9-7.44-25.41-4.48-32.41-2.06a4.85,4.85,0,0,1-6.44-4L127.62,349.62c-2.13-19,9.34-36.94,27.27-42.56h0c.67-.22,1.36-.42,2.05-.6a39.53,39.53,0,0,1,33,5.72,40.18,40.18,0,0,1,17.17,29.35l10.71,114.39a4.84,4.84,0,0,1-1.52,4C212.51,463.4,201.61,472.44,190.05,472.44Z" transform="translate(0 0)"/><path id="Path_118" data-name="Path 118" class="cls-4" d="M151.31,374l-28.7-3.15a5.74,5.74,0,0,1-4.91-7.14L125,335.85a15.88,15.88,0,1,1,31.59,3.25,2.91,2.91,0,0,1,0,.31l1.09,28.67a5.71,5.71,0,0,1-5.5,5.93,5.9,5.9,0,0,1-.84,0Z" transform="translate(0 0)"/><path id="Path_119" data-name="Path 119" class="cls-5" d="M217.68,461.52a10.74,10.74,0,0,0,1-15.16,11.21,11.21,0,0,0-1.37-1.3l-7.07-92.85-20.79,4.68,12.2,90.42a10.8,10.8,0,0,0,16.06,14.21Z" transform="translate(0 0)"/><path id="Path_120" data-name="Path 120" class="cls-4" d="M181.44,368.15a5.73,5.73,0,0,1-1.82-4.4l1.09-28.68a15.88,15.88,0,1,1,31.55-3.56l7.31,27.84a5.7,5.7,0,0,1-4.91,7.14L186,369.64a5.67,5.67,0,0,1-4.52-1.5Z" transform="translate(0 0)"/><path id="Path_121" data-name="Path 121" class="cls-6" d="M165.45,296.74a5.64,5.64,0,0,1-1.3-.15l-.13,0c-21.59-3.3-26.37-15.81-27.41-21-1.09-5.4.15-10.62,2.94-12.65-1.52-4.8-1.28-9.06.72-12.66,3.5-6.28,11.08-8.4,12.1-8.67,6.06-4.47,13.31-1.48,14.63-.88,11.72-4.33,16.2-.73,17,.08,5.24.94,8.43,3,9.49,6,2,5.73-4.31,12.86-4.58,13.16l-.14.15-9.38.45a6.36,6.36,0,0,0-6,6.65c0,.23,0,.45.06.67h0a32.77,32.77,0,0,0,1,3.35c1.6,5,2.8,9.29,1.26,10.91a2.53,2.53,0,0,1-2.63.46c-1.47-.4-2.46-.31-3,.24-.77.86-.53,3,.67,6.13a5.74,5.74,0,0,1-1.05,5.84,5.56,5.56,0,0,1-4.23,2Z" transform="translate(0 0)"/></g></svg>