<?xml version="1.0" encoding="utf-8"?>
<!-- Generator: Adobe Illustrator 25.2.1, SVG Export Plug-In . SVG Version: 6.00 Build 0)  -->
<svg version="1.1" id="ab8ae2a1-21db-4159-bb67-e2c62dcc19dc"
	 xmlns="http://www.w3.org/2000/svg" xmlns:xlink="http://www.w3.org/1999/xlink" x="0px" y="0px" viewBox="0 0 867.9 588.5"
	 style="enable-background:new 0 0 867.9 588.5;" xml:space="preserve">
<style type="text/css">
	.st0{fill:#2F2E41;}
	.st1{fill:#9F616A;}
	.st2{fill:#E6E6E6;}
	.st3{fill:#17C600;}
	.st4{fill:none;}
	.st5{opacity:0.1;enable-background:new    ;}
	.st6{fill:#3F3D56;}
	.st7{fill:#FFFFFF;}
</style>
<path class="st0" d="M759,170.7H643c-15.7-42.5-22.5-82,0-111.7c0-32,26-58,58-58l0,0h0c18.8,0,36.4,9.1,47.3,24.4
	c9.2,12.9,11,29.5,5.7,44.4C744.7,96.4,750.4,132.6,759,170.7z"/>
<path class="st0" d="M820.3,588.5L820.3,588.5c-6.9,0-13-4.5-15-11.1l-4.8-15.5c-1.1-3.6-1.3-7.4-0.6-11.1l3.3-17.2H826l9.5,35.1
	c2.3,8.4-2.7,17-11.1,19.2C823.1,588.3,821.7,588.5,820.3,588.5z"/>
<path class="st0" d="M653.9,588.5L653.9,588.5c6.9,0,13-4.5,15-11.1l4.8-15.5c1.1-3.6,1.3-7.4,0.6-11.1l-3.3-17.2h-22.8l-9.5,35.1
	c-2.3,8.4,2.7,17,11.1,19.2C651.2,588.3,652.5,588.5,653.9,588.5z"/>
<path class="st0" d="M827.8,535.4h-25.3L692.7,326.8l-20.3,208.6h-22.3c-11.5-131.4-39.3-256.5,0-303.7l92,8.6L827.8,535.4z"/>
<circle class="st1" cx="697.9" cy="59.9" r="30.9"/>
<path class="st1" d="M741.4,178.7h-68.5l-11.7-54.3c22.8-6.7,28.2-22.4,23.5-43.2l37-2.5c2.1,16.8,5.9,32.5,29.6,35.2L741.4,178.7z"
	/>
<path class="st2" d="M741.4,246.6c-38.9,14.8-70.5,14.3-92.6-6.2c10-32.9,10.6-73.4,6.2-117.9l12.3-5.6l4.3,39.5l61.1-3.1l13.6-43.2
	l13.6,3.1C761,166.8,757.8,215,741.4,246.6z"/>
<path class="st1" d="M777.2,313.2l7.3,23.6c2.1,6.7-1.7,13.9-8.5,16c-1.2,0.4-2.5,0.6-3.8,0.6l0,0c-7.1,0-12.8-5.7-12.8-12.8
	c0-0.4,0-0.9,0.1-1.3l2.8-27.2l-11.7-92.6l8.6-40.7h21.6L777.2,313.2z"/>
<path class="st1" d="M604.4,308.3l-12.8,21.1c-3.6,6-1.7,13.9,4.3,17.5c1.1,0.7,2.3,1.1,3.5,1.5l0,0c6.8,1.7,13.8-2.5,15.5-9.3
	c0.1-0.4,0.2-0.9,0.3-1.3l3.8-27.1l33.8-87l6.8-41.7l-26.3-5.2L604.4,308.3z"/>
<path class="st2" d="M796.4,183.6l-40.7-0.6v-71l6.3,0.9c13.7,2,24.3,13.1,25.5,26.9L796.4,183.6z"/>
<path class="st2" d="M622.3,191l40.7-0.6v-71l-6.3,0.9c-13.7,2-24.3,13.1-25.5,26.9L622.3,191z"/>
<path class="st0" d="M726.3,45.1c-13.1,7.4-38.3,10.8-56.8,5.6l-6.2-32.1h61.1L726.3,45.1z"/>
<rect x="40" y="426" class="st2" width="201" height="162"/>
<rect x="123.5" y="541" class="st3" width="34" height="46"/>
<path class="st4" d="M262.9,561.1l-3.5-2.9l0.3,1.8C259.7,560,260.9,560.4,262.9,561.1z"/>
<polygon class="st3" points="488,430.8 493.4,416.5 543.3,388 577.2,380.9 "/>
<polygon class="st3" points="304.4,430.8 299,416.5 249.1,388 215.2,380.9 "/>
<polygon class="st3" points="491.6,434.4 300.8,434.4 284.7,359.5 507.6,359.5 "/>
<polygon class="st5" points="491.6,434.3 300.8,434.3 284.7,359.4 507.6,359.4 "/>
<rect x="299.9" y="429.9" class="st3" width="192.6" height="158.1"/>
<rect x="379.2" y="541" class="st6" width="34" height="46"/>
<polygon class="st6" points="867.5,588.2 0,588.2 0,586 867.9,586 "/>
<rect x="356.2" y="462.2" class="st7" width="80" height="25"/>
<rect x="100" y="462.2" class="st7" width="80" height="25"/>
</svg>
