<svg id="bfd7ed38-e2c2-4ce4-aa7c-70bac4bc4918" xmlns="http://www.w3.org/2000/svg" viewBox="0 0 807.86 581.58"><defs><style>.cls-1{fill:#ccc;}.cls-2{fill:#17c600;}.cls-3{opacity:0.1;}.cls-3,.cls-9{isolation:isolate;}.cls-4{fill:#f2f2f2;}.cls-5{fill:#fff;}.cls-6{fill:#3f3d56;}.cls-7{fill:#ffb8b8;}.cls-8{fill:#2f2e41;}.cls-9{opacity:0.2;}</style></defs><path class="cls-1" d="M705.26,200.08c-29.24-21.86-75-42.53-125.64-56.72-46.08-12.91-91-19.15-126.56-17.56l-.19-4.13c36-1.61,81.37,4.68,127.86,17.71,51.08,14.32,97.37,35.23,127,57.38Z" transform="translate(0)"/><path class="cls-2" d="M702.22,216.91a137.6,137.6,0,0,1-11.91,56.21q-1,2.22-2.06,4.4a138.19,138.19,0,0,1-262.38-60.61q0-4.8.33-9.52c.1-1.6.24-3.19.4-4.77a138.18,138.18,0,0,1,275.62,14.29Z" transform="translate(0)"/><path class="cls-3" d="M690.31,273.12q-1,2.22-2.06,4.4-6.06.66-12.75,1c-3.69.16-7.5.25-11.38.25-33.93,0-74.77-6.27-116.48-18-46.5-13-88.56-31.26-118.44-51.32-1-.69-2-1.37-3-2.06.1-1.6.24-3.19.4-4.77,1.58,1.13,3.22,2.26,4.9,3.39,29.54,19.83,71.17,37.86,117.25,50.78,41.36,11.59,81.81,17.8,115.35,17.8q5.74,0,11.21-.24Q683.28,274,690.31,273.12Z" transform="translate(0)"/><path class="cls-1" d="M664.12,275.42c-33.93,0-74.77-6.26-116.48-18-46.49-13-88.56-31.26-118.44-51.32-30.51-20.49-44.82-40.68-40.29-56.85s27.25-26,64-27.62l.19,4.13c-17.15.77-31.12,3.32-41.53,7.58s-16.66,10-18.63,17,.4,15.21,7.06,24.24,17.3,18.48,31.54,28c29.53,19.83,71.17,37.86,117.25,50.78,41.36,11.59,81.8,17.8,115.35,17.8q5.74,0,11.21-.24c17.15-.77,31.12-3.32,41.53-7.58s16.66-10,18.63-17c3.55-12.67-7.18-29.13-30.21-46.35l2.47-3.32c11.86,8.87,20.63,17.6,26.09,26,5.84,9,7.74,17.32,5.64,24.82-4.53,16.17-27.25,26-64,27.62C671.8,275.34,668,275.42,664.12,275.42Z" transform="translate(0)"/><circle class="cls-4" cx="567.7" cy="52.23" r="1.58"/><circle class="cls-1" cx="357.65" cy="119.8" r="2.72"/><circle class="cls-1" cx="351.84" cy="226.41" r="5.38"/><circle class="cls-1" cx="674.84" cy="61.73" r="3.59"/><circle class="cls-1" cx="802.04" cy="210.58" r="5.82"/><circle class="cls-1" cx="756.51" cy="117.58" r="2.5"/><circle class="cls-1" cx="453.17" cy="85.49" r="3.9"/><circle class="cls-1" cx="747.76" cy="198.77" r="2.5"/><circle class="cls-1" cx="364.51" cy="302.41" r="3.11"/><circle class="cls-1" cx="427.31" cy="345.69" r="3.37"/><polygon class="cls-1" points="525.2 6.64 518.55 6.64 518.55 0 514.99 0 514.99 6.64 508.34 6.64 508.34 10.21 514.99 10.21 514.99 16.86 518.55 16.86 518.55 10.21 525.2 10.21 525.2 6.64"/><polygon class="cls-1" points="679.34 366.2 675.17 366.2 675.17 362.03 672.93 362.03 672.93 366.2 668.76 366.2 668.76 368.44 672.93 368.44 672.93 372.61 675.17 372.61 675.17 368.44 679.34 368.44 679.34 366.2"/><polygon class="cls-1" points="775.65 344.84 772.53 344.84 772.53 341.73 770.85 341.73 770.85 344.84 767.73 344.84 767.73 346.52 770.85 346.52 770.85 349.64 772.53 349.64 772.53 346.52 775.65 346.52 775.65 344.84"/><circle class="cls-3" cx="566.12" cy="108.72" r="11.61"/><circle class="cls-3" cx="476.92" cy="193.69" r="11.61"/><circle class="cls-3" cx="605.17" cy="310.33" r="11.61"/><circle class="cls-3" cx="566.12" cy="211.63" r="11.61"/><circle class="cls-3" cx="482.73" cy="275.5" r="11.61"/><circle class="cls-3" cx="628.4" cy="149.36" r="11.61"/><circle class="cls-3" cx="666.92" cy="228" r="11.61"/><circle class="cls-5" cx="566.12" cy="160.97" r="15.31"/><path class="cls-1" d="M566.12,138.8a21.64,21.64,0,0,0-21.64,21.64c0,11.95,21.64,51.19,21.64,51.19s21.64-39.24,21.64-51.19A21.64,21.64,0,0,0,566.12,138.8Zm0,32.2a10,10,0,1,1,10-10,10,10,0,0,1-10,10Z" transform="translate(0)"/><circle class="cls-5" cx="482.73" cy="226.41" r="15.31"/><path class="cls-1" d="M482.73,204.25a21.63,21.63,0,0,0-21.64,21.63c0,12,21.64,51.2,21.64,51.2s21.64-39.24,21.64-51.2A21.63,21.63,0,0,0,482.73,204.25Zm0,32.19a10,10,0,1,1,10-10,10,10,0,0,1-10,10Z" transform="translate(0)"/><circle class="cls-5" cx="666.92" cy="178.91" r="15.31"/><path class="cls-1" d="M666.92,156.75a21.62,21.62,0,0,0-21.63,21.63h0c0,12,21.63,51.2,21.63,51.2s21.64-39.24,21.64-51.2a21.62,21.62,0,0,0-21.63-21.63Zm0,32.19a10,10,0,1,1,10-10,10,10,0,0,1-10,10Z" transform="translate(0)"/><circle class="cls-5" cx="566.12" cy="58.05" r="15.31"/><path class="cls-1" d="M566.12,35.88a21.64,21.64,0,0,0-21.64,21.64c0,11.95,21.64,51.2,21.64,51.2s21.64-39.25,21.64-51.2A21.64,21.64,0,0,0,566.12,35.88Zm0,32.2a10,10,0,1,1,10-10,10,10,0,0,1-10,10Z" transform="translate(0)"/><circle class="cls-5" cx="605.17" cy="261.25" r="15.31"/><path class="cls-6" d="M605.17,239.08a21.63,21.63,0,0,0-21.63,21.64c0,11.95,21.63,51.19,21.63,51.19s21.64-39.24,21.64-51.19a21.64,21.64,0,0,0-21.64-21.64Zm0,32.19a10,10,0,1,1,10-10,10,10,0,0,1-10,10Z" transform="translate(0)"/><circle class="cls-5" cx="476.92" cy="143.55" r="15.31"/><path class="cls-6" d="M476.92,121.38A21.64,21.64,0,0,0,455.28,143c0,11.95,21.64,51.2,21.64,51.2S498.56,155,498.56,143A21.64,21.64,0,0,0,476.92,121.38Zm0,32.2a10,10,0,1,1,10-10,10,10,0,0,1-10,10Z" transform="translate(0)"/><circle class="cls-5" cx="628.4" cy="100.8" r="15.31"/><path class="cls-6" d="M628.4,78.63a21.64,21.64,0,0,0-21.64,21.64c0,12,21.64,51.2,21.64,51.2S650,112.22,650,100.27A21.64,21.64,0,0,0,628.4,78.63Zm0,32.2a10,10,0,1,1,10-10,10,10,0,0,1-10,10Z" transform="translate(0)"/><polygon class="cls-7" points="188.86 569.72 201.04 568.33 201.51 520.69 183.53 522.73 188.86 569.72"/><path class="cls-8" d="M225.82,577l-38.28,4.34h0l-1.68-14.79h0l23.49-2.67A14.9,14.9,0,0,1,225.82,577Z" transform="translate(0)"/><polygon class="cls-7" points="63.58 568.95 75.84 568.95 81.67 521.66 63.58 521.67 63.58 568.95"/><path class="cls-8" d="M99.49,580.34H61V565.45H84.6a14.89,14.89,0,0,1,14.89,14.89Z" transform="translate(0)"/><path class="cls-8" d="M151.54,357.49l7,22.77,38,82.23,10,78-23,1-14-72-48-52-42,136-19-2s16-176,38-194C98.54,357.49,134.54,340.49,151.54,357.49Z" transform="translate(0)"/><circle class="cls-7" cx="120.49" cy="234.68" r="24.56"/><path class="cls-1" d="M154,362s3-102-39-95-24.5,105.5-24.5,105.5,9,18,31-2S154,362,154,362Z" transform="translate(0)"/><polygon class="cls-9" points="96.04 309.99 105.93 347.87 120.98 362.93 100.04 355.99 96.04 309.99"/><path class="cls-7" d="M154.35,405.12a10,10,0,0,1-6-12.88,9.7,9.7,0,0,1,.75-1.6l-23.36-27.05,18.41-2.39,19.36,26a10.11,10.11,0,0,1-9.14,17.88Z" transform="translate(0)"/><path class="cls-1" d="M125.91,287.76l2.63,51.73,31,40-13,10-42-42s-15-51-4-66c4.13-5.63,8.68-7.18,12.75-6.91A13.77,13.77,0,0,1,125.91,287.76Z" transform="translate(0)"/><path class="cls-8" d="M117.57,260.49a1,1,0,0,0,.08-1.44,1.24,1.24,0,0,0-.22-.18,14.3,14.3,0,0,1,1.37-25c7.23-3.44,17-.76,22.35-7.38a12.37,12.37,0,0,0,2.3-10.08c-1.15-6.24-5.85-10.88-11.11-14.07a40.44,40.44,0,0,0-61.09,39.14c.68,6,2.54,12.76-1,17.64-3.15,4.3-9.09,5.1-14.31,6.17-11.19,2.29-22,7.57-29.58,16.11S14.67,301.87,17,313.06s11.48,21,22.77,22.77c9.19,1.41,18.68-2.5,25.43-8.89s11-15,13.71-23.94c3.19-10.56,4.45-21.95,10.22-31.36,5.64-9.21,17.8-15.81,27.33-11a1,1,0,0,0,1.15-.13Z" transform="translate(0)"/><path class="cls-6" d="M308,581.58H1a1,1,0,0,1,0-2H308a1,1,0,0,1,0,2Z" transform="translate(0)"/></svg>